<svg width="33" height="31" viewBox="0 0 33 31" fill="none" xmlns="http://www.w3.org/2000/svg">
<path d="M5.74023 9.34687V17.9465H3.06055H0.367188V22.2531V26.5598H3.06055H5.75391V28.7062V30.8527H16.5H27.2598V23.3195V15.8H29.9531H32.6328V12.0402V8.2668H29.9395H27.2461V4.50703V0.747265H16.5H5.74023V9.34687ZM26.1797 3.42695V5.04023H16.5H6.82031V3.42695V1.81367H16.5H26.1797V3.42695ZM26.1797 7.20039V8.28047H22.4199H18.6602V12.0402V15.8H22.4199H26.1797V22.7863V29.7727H16.5H6.82031V28.1594V26.5461H10.5801H14.3398V22.2395V17.9328H10.5801H6.82031V12.0129V6.12031H16.5H26.1797V7.20039ZM31.5527 12.0402V14.7336H25.6328H19.7129V12.0402V9.34687H25.6328H31.5527V12.0402ZM13.2734 22.2531V25.4797H7.35352H1.44727V22.2531V19.0266H7.36719H13.2871V22.2531H13.2734Z" fill="#62560E"/>
<path d="M8.20119 2.97578C7.8594 3.16719 7.79104 3.53633 8.06448 3.79609C8.32424 4.06953 8.70705 4.01484 8.87111 3.68672C9.00783 3.41328 8.99416 3.30391 8.77541 3.08516C8.57033 2.88008 8.41994 2.85273 8.20119 2.97578Z" fill="#62560E"/>
<path d="M10.3477 2.97578C10.0332 3.12617 9.96486 3.55 10.2246 3.79609C10.4844 4.05586 10.9082 3.97383 11.0586 3.6457C11.168 3.39961 11.1543 3.29023 10.9356 3.08516C10.7168 2.89375 10.5801 2.85273 10.3477 2.97578Z" fill="#62560E"/>
<path d="M12.4942 2.97578C12.1524 3.16719 12.084 3.53633 12.3574 3.79609C12.6309 4.06953 13 4.00117 13.1778 3.6457C13.3008 3.41328 13.2735 3.29023 13.0684 3.08516C12.877 2.88008 12.7129 2.85273 12.4942 2.97578Z" fill="#62560E"/>
<path d="M8.9668 8.81367V9.34687H13.2734H17.5801V8.81367V8.28047H13.2734H8.9668V8.81367Z" fill="#62560E"/>
<path d="M8.9668 12.0402V12.5734H13.2734H17.5801V12.0402V11.507H13.2734H8.9668V12.0402Z" fill="#62560E"/>
<path d="M8.9668 15.2668V15.8H13.2734H17.5801V15.2668V14.7336H13.2734H8.9668V15.2668Z" fill="#62560E"/>
<path d="M15.4199 18.4934V19.0266H19.7266H24.0332V18.4934V17.9602H19.7266H15.4199V18.4934Z" fill="#62560E"/>
<path d="M15.4199 21.7199V22.2531H19.7266H24.0332V21.7199V21.1867H19.7266H15.4199V21.7199Z" fill="#62560E"/>
<path d="M15.4199 24.9465V25.4797H19.7266H24.0332V24.9465V24.4133H19.7266H15.4199V24.9465Z" fill="#62560E"/>
<path d="M20.8066 10.9602V11.4934H23.5H26.1934V10.9602V10.427H23.5H20.8066V10.9602Z" fill="#62560E"/>
<path d="M29.1875 11.2746L28.3262 12.1359L27.9844 11.7941L27.6426 11.466L27.2734 11.8352L26.9043 12.2043L27.6289 12.9289L28.3535 13.6535L29.5703 12.4367C30.2539 11.7531 30.8008 11.1789 30.8008 11.1379C30.8008 11.0559 30.1855 10.427 30.0898 10.427C30.0762 10.427 29.666 10.8098 29.1875 11.2746Z" fill="#62560E"/>
<path d="M20.8066 13.1066V13.6398H23.5H26.1934V13.1066V12.5734H23.5H20.8066V13.1066Z" fill="#62560E"/>
<path d="M2.81447 20.1887C2.50001 20.3391 2.43166 20.7629 2.69142 21.009C2.9922 21.3234 3.47072 21.173 3.56642 20.7355C3.62111 20.5305 3.45705 20.257 3.21095 20.1613C3.01955 20.093 2.9922 20.093 2.81447 20.1887Z" fill="#62560E"/>
<path d="M4.67383 20.6398V21.173H8.43359H12.1934V20.6398V20.1066H8.43359H4.67383V20.6398Z" fill="#62560E"/>
<path d="M2.81447 23.4152C2.47268 23.593 2.41799 23.9758 2.67775 24.2355C2.95119 24.509 3.32033 24.4406 3.49807 24.0852C3.62111 23.8527 3.59377 23.7297 3.38869 23.5246C3.19729 23.3195 3.04689 23.2922 2.81447 23.4152Z" fill="#62560E"/>
<path d="M4.67383 23.8664V24.3996H8.43359H12.207L12.1934 23.8801L12.1797 23.3605L8.43359 23.3469L4.6875 23.3332L4.67383 23.8664Z" fill="#62560E"/>
</svg>
