<svg width="33" height="31" viewBox="0 0 33 31" fill="none" xmlns="http://www.w3.org/2000/svg">
<path d="M5.74023 9.34692V17.9465H3.06055H0.367188V22.2532V26.5598H3.06055H5.75391V28.7063V30.8528H16.5H27.2598V23.3196V15.8H29.9531H32.6328V12.0403V8.26685H29.9395H27.2461V4.50708V0.747314H16.5H5.74023V9.34692ZM26.1797 3.427V5.04028H16.5H6.82031V3.427V1.81372H16.5H26.1797V3.427ZM26.1797 7.20044V8.28052H22.4199H18.6602V12.0403V15.8H22.4199H26.1797V22.7864V29.7727H16.5H6.82031V28.1594V26.5461H10.5801H14.3398V22.2395V17.9329H10.5801H6.82031V12.0129V6.12036H16.5H26.1797V7.20044ZM31.5527 12.0403V14.7336H25.6328H19.7129V12.0403V9.34692H25.6328H31.5527V12.0403ZM13.2734 22.2532V25.4797H7.35352H1.44727V22.2532V19.0266H7.36719H13.2871V22.2532H13.2734Z" fill="#FF0303"/>
<path d="M8.20119 2.97583C7.8594 3.16724 7.79104 3.53638 8.06448 3.79614C8.32424 4.06958 8.70705 4.01489 8.87111 3.68677C9.00783 3.41333 8.99416 3.30396 8.77541 3.08521C8.57033 2.88013 8.41994 2.85278 8.20119 2.97583Z" fill="#FF0303"/>
<path d="M10.3477 2.97584C10.0332 3.12623 9.96486 3.55005 10.2246 3.79615C10.4844 4.05591 10.9082 3.97388 11.0586 3.64576C11.168 3.39966 11.1543 3.29029 10.9356 3.08521C10.7168 2.8938 10.5801 2.85279 10.3477 2.97584Z" fill="#FF0303"/>
<path d="M12.4942 2.97583C12.1524 3.16724 12.084 3.53638 12.3574 3.79614C12.6309 4.06958 13 4.00122 13.1778 3.64575C13.3008 3.41333 13.2735 3.29028 13.0684 3.08521C12.877 2.88013 12.7129 2.85278 12.4942 2.97583Z" fill="#FF0303"/>
<path d="M8.9668 8.81372V9.34692H13.2734H17.5801V8.81372V8.28052H13.2734H8.9668V8.81372Z" fill="#FF0303"/>
<path d="M8.9668 12.0403V12.5735H13.2734H17.5801V12.0403V11.5071H13.2734H8.9668V12.0403Z" fill="#FF0303"/>
<path d="M8.9668 15.2668V15.8H13.2734H17.5801V15.2668V14.7336H13.2734H8.9668V15.2668Z" fill="#FF0303"/>
<path d="M15.4199 18.4934V19.0266H19.7266H24.0332V18.4934V17.9602H19.7266H15.4199V18.4934Z" fill="#FF0303"/>
<path d="M15.4199 21.72V22.2532H19.7266H24.0332V21.72V21.1868H19.7266H15.4199V21.72Z" fill="#FF0303"/>
<path d="M15.4199 24.9465V25.4797H19.7266H24.0332V24.9465V24.4133H19.7266H15.4199V24.9465Z" fill="#FF0303"/>
<path d="M20.8066 10.9602V11.4934H23.5H26.1934V10.9602V10.427H23.5H20.8066V10.9602Z" fill="#FF0303"/>
<path d="M29.1875 11.2747L28.3262 12.136L27.9844 11.7942L27.6426 11.4661L27.2734 11.8352L26.9043 12.2043L27.6289 12.929L28.3535 13.6536L29.5703 12.4368C30.2539 11.7532 30.8008 11.179 30.8008 11.1379C30.8008 11.0559 30.1855 10.427 30.0898 10.427C30.0762 10.427 29.666 10.8098 29.1875 11.2747Z" fill="#FF0303"/>
<path d="M20.8066 13.1067V13.6399H23.5H26.1934V13.1067V12.5735H23.5H20.8066V13.1067Z" fill="#FF0303"/>
<path d="M2.81447 20.1887C2.50001 20.3391 2.43166 20.7629 2.69142 21.009C2.9922 21.3234 3.47072 21.173 3.56642 20.7355C3.62111 20.5305 3.45705 20.257 3.21095 20.1613C3.01955 20.093 2.9922 20.093 2.81447 20.1887Z" fill="#FF0303"/>
<path d="M4.67383 20.6399V21.1731H8.43359H12.1934V20.6399V20.1067H8.43359H4.67383V20.6399Z" fill="#FF0303"/>
<path d="M2.81447 23.4153C2.47268 23.593 2.41799 23.9758 2.67775 24.2356C2.95119 24.509 3.32033 24.4407 3.49807 24.0852C3.62111 23.8528 3.59377 23.7297 3.38869 23.5247C3.19729 23.3196 3.04689 23.2922 2.81447 23.4153Z" fill="#FF0303"/>
<path d="M4.67383 23.8665V24.3997H8.43359H12.207L12.1934 23.8801L12.1797 23.3606L8.43359 23.3469L4.6875 23.3333L4.67383 23.8665Z" fill="#FF0303"/>
</svg>
