<svg width="32" height="33" viewBox="0 0 32 33" fill="none" xmlns="http://www.w3.org/2000/svg">
<g clip-path="url(#clip0_6_30)">
<path d="M15.45 23.8375C15.45 20.75 17.025 18.0375 19.4125 16.4375C20.025 15.725 20.4375 14.875 20.7125 13.9625C22.175 13.675 22.3 11.4125 22.3 11.4125C22.45 10.125 21.7 9.81255 21.2125 9.73755C21.15 4.36255 19.2875 1.48755 14.0375 1.48755C8.79999 1.48755 6.92499 4.36255 6.86249 9.73755C6.37499 9.81255 5.62499 10.125 5.77499 11.4125C5.77499 11.4125 5.89999 13.675 7.36249 13.9625C7.64999 14.8875 8.07499 15.7625 8.71249 16.4875C9.14999 16.975 9.66249 17.5 9.91249 18.125C10.2875 19.05 10.075 20.175 9.66249 21.0375C8.84999 22.7875 7.14999 22.9875 5.47499 23.4375C4.66249 23.6625 3.79999 23.8625 3.07499 24.3125C1.66249 25.175 1.36249 26.7875 1.26249 28.325C1.21249 29.2375 1.22499 28.5625 1.22499 29.4125C1.23749 29.825 1.38749 30.9375 2.59999 31.225C4.54999 31.65 8.46249 32.0875 14.025 32.0875C16.5875 32.0875 18.825 32.1 20.675 31.925C17.6 30.5625 15.45 27.45 15.45 23.8375Z" fill="#62560E"/>
<path d="M30.75 23.8375C30.75 27.375 27.8875 30.2375 24.35 30.2375C20.8125 30.2375 17.95 27.375 17.95 23.8375C17.95 20.3 20.8125 17.4375 24.35 17.4375C27.8875 17.4375 30.75 20.3 30.75 23.8375ZM28.1625 22.975H25.2125V20.025C25.2125 19.55 24.825 19.1625 24.35 19.1625C23.875 19.1625 23.4875 19.55 23.4875 20.025V22.975H20.5375C20.0625 22.975 19.675 23.3625 19.675 23.8375C19.675 24.3125 20.0625 24.7 20.5375 24.7H23.4875V27.65C23.4875 28.125 23.875 28.5125 24.35 28.5125C24.825 28.5125 25.2125 28.125 25.2125 27.65V24.7H28.1625C28.6375 24.7 29.025 24.3125 29.025 23.8375C29.025 23.3625 28.6375 22.975 28.1625 22.975Z" fill="#62560E"/>
</g>
<defs>
<clipPath id="clip0_6_30">
<rect width="32" height="32" fill="white" transform="translate(0 0.800049)"/>
</clipPath>
</defs>
</svg>
