<svg width="30" height="32" viewBox="0 0 30 32" fill="none" xmlns="http://www.w3.org/2000/svg">
<path d="M14.45 22.8375C14.45 19.75 16.025 17.0375 18.4125 15.4375C19.025 14.725 19.4375 13.875 19.7125 12.9625C21.175 12.675 21.3 10.4125 21.3 10.4125C21.45 9.12505 20.7 8.81255 20.2125 8.73755C20.15 3.36255 18.2875 0.487549 13.0375 0.487549C7.79999 0.487549 5.92499 3.36255 5.86249 8.73755C5.37499 8.81255 4.62499 9.12505 4.77499 10.4125C4.77499 10.4125 4.89999 12.675 6.36249 12.9625C6.64999 13.8875 7.07499 14.7625 7.71249 15.4875C8.14999 15.975 8.66249 16.5 8.91249 17.125C9.28749 18.05 9.07499 19.175 8.66249 20.0375C7.84999 21.7875 6.14999 21.9875 4.47499 22.4375C3.66249 22.6625 2.79999 22.8625 2.07499 23.3125C0.662491 24.175 0.362491 25.7875 0.262491 27.325C0.212491 28.2375 0.224991 27.5625 0.224991 28.4125C0.237491 28.825 0.387491 29.9375 1.59999 30.225C3.54999 30.65 7.46249 31.0875 13.025 31.0875C15.5875 31.0875 17.825 31.1 19.675 30.925C16.6 29.5625 14.45 26.45 14.45 22.8375Z" fill="#FF0303"/>
<path d="M29.75 22.8375C29.75 26.375 26.8875 29.2375 23.35 29.2375C19.8125 29.2375 16.95 26.375 16.95 22.8375C16.95 19.3 19.8125 16.4375 23.35 16.4375C26.8875 16.4375 29.75 19.3 29.75 22.8375ZM27.1625 21.975H24.2125V19.025C24.2125 18.55 23.825 18.1625 23.35 18.1625C22.875 18.1625 22.4875 18.55 22.4875 19.025V21.975H19.5375C19.0625 21.975 18.675 22.3625 18.675 22.8375C18.675 23.3125 19.0625 23.7 19.5375 23.7H22.4875V26.65C22.4875 27.125 22.875 27.5125 23.35 27.5125C23.825 27.5125 24.2125 27.125 24.2125 26.65V23.7H27.1625C27.6375 23.7 28.025 23.3125 28.025 22.8375C28.025 22.3625 27.6375 21.975 27.1625 21.975Z" fill="#FF0303"/>
</svg>
