<svg width="35" height="40" viewBox="0 0 35 40" fill="none" xmlns="http://www.w3.org/2000/svg">
<path d="M26.218 0.145916C26.0865 0.216026 25.9259 0.356245 25.8528 0.461409C25.6484 0.741847 19.1632 11.8717 19.0318 12.1697C18.8565 12.5728 18.8857 13.3615 19.0756 13.7997C19.3239 14.3606 19.7329 14.6761 20.2879 14.7287C21.1497 14.7988 20.9306 15.0792 25.0787 8.82196C27.109 5.75467 28.8325 3.12557 28.8909 2.98535C29.1538 2.38942 28.9201 1.28519 28.4089 0.671737C27.9415 0.0758069 26.773 -0.187103 26.218 0.145916ZM26.8315 0.759374C27.0651 0.91712 26.9921 1.26767 26.5393 2.0564C26.0719 2.86266 25.8674 3.0204 25.6337 2.75749C25.4293 2.52964 25.4585 2.31931 25.7506 1.82854C26.4371 0.689264 26.5393 0.5841 26.8315 0.759374Z" fill="#FF0303"/>
<path d="M1.86958 4.45772C1.12467 4.7031 0.496609 5.35161 0.160668 6.22798L0 6.64864V17.6909V28.7331L0.18988 29.2063C0.408972 29.7847 0.730307 30.2054 1.15388 30.556C1.86958 31.0993 0.788731 31.0642 17.4251 31.0467L32.4986 31.0292L32.966 30.7663C33.5649 30.4333 33.9593 29.9425 34.2368 29.2414L34.4559 28.6805V17.6909V6.73627L34.2368 6.1754C33.9593 5.45678 33.5503 4.98354 32.966 4.65052L32.4986 4.38761L30.965 4.33503L29.446 4.29997L28.7741 5.31656C28.3943 5.87743 28.1022 6.35067 28.1022 6.3682C28.1022 6.38573 29.0078 6.42078 30.1178 6.42078C31.8998 6.42078 32.1481 6.43831 32.338 6.561C32.7762 6.87649 32.7469 6.35067 32.7469 16.4815V25.7184H17.2352H1.72352V16.464C1.72352 6.28056 1.70892 6.84144 2.1471 6.561C2.32238 6.45584 3.47626 6.43831 11.6849 6.43831H21.0328L21.5148 5.61452C21.7777 5.15881 22.0553 4.68557 22.1283 4.56288L22.2451 4.33503H12.2545C3.69535 4.33503 2.20553 4.33503 1.86958 4.45772Z" fill="#FF0303"/>
<path d="M16.7094 15.0971C16.169 15.3424 15.687 15.9559 15.5409 16.5694C15.5117 16.7446 15.4679 17.2179 15.4679 17.6385C15.4679 18.4623 15.3949 18.8654 15.1758 19.1634C15.0297 19.3562 14.6499 19.5665 14.314 19.6542C14.1095 19.7068 14.1095 19.7068 14.241 19.882C14.6207 20.3728 15.5263 20.6007 16.651 20.4604C17.7757 20.3202 18.4621 20.0573 18.8857 19.6016C19.9666 18.4623 19.5722 16.026 18.17 15.2198C17.7757 14.9919 17.0892 14.9393 16.7094 15.0971Z" fill="#FF0303"/>
<path d="M14.3578 32.589C14.2994 32.6591 14.2702 33.1674 14.2702 34.3242V35.9542H12.313C10.7355 35.9542 10.3265 35.9718 10.2097 36.0769C10.0928 36.1821 10.0782 36.3223 10.049 37.6894C10.0344 38.9339 10.049 39.2143 10.1367 39.3896L10.2389 39.5999H17.2498C23.9394 39.5999 24.2608 39.5999 24.363 39.4422C24.4653 39.302 24.4799 39.0566 24.4799 37.7946C24.4799 36.4099 24.4653 36.2872 24.3338 36.1295C24.2024 35.9718 24.1001 35.9542 22.2597 35.9542H20.3171L20.3025 34.3592C20.2879 33.1498 20.2587 32.7292 20.1857 32.624C20.098 32.5013 19.8059 32.4838 17.2644 32.4838C15.1758 32.4838 14.4163 32.5189 14.3578 32.589Z" fill="#FF0303"/>
</svg>
